<mxfile host="app.diagrams.net" agent="Mozilla/5.0 (Windows NT 10.0; Win64; x64) AppleWebKit/537.36 (KHTML, like Gecko) Chrome/124.0.0.0 Safari/537.36 SLBrowser/9.0.6.2081 SLBChan/33 SLBVPV/64-bit" version="26.2.12">
  <diagram name="第 1 页" id="-I8Jd5fCerNLRJNs5WeS">
    <mxGraphModel dx="978" dy="580" grid="1" gridSize="10" guides="1" tooltips="1" connect="1" arrows="1" fold="1" page="1" pageScale="1" pageWidth="1169" pageHeight="827" math="0" shadow="0">
      <root>
        <mxCell id="0" />
        <mxCell id="1" parent="0" />
        <mxCell id="hcoVns-1XVPWfOlpt7Nq-42" value="" style="group" vertex="1" connectable="0" parent="1">
          <mxGeometry x="260" y="800" width="320" height="520" as="geometry" />
        </mxCell>
        <mxCell id="hcoVns-1XVPWfOlpt7Nq-43" value="" style="rounded=0;whiteSpace=wrap;html=1;" vertex="1" parent="hcoVns-1XVPWfOlpt7Nq-42">
          <mxGeometry x="20" y="20" width="290" height="500" as="geometry" />
        </mxCell>
        <mxCell id="hcoVns-1XVPWfOlpt7Nq-44" value="&lt;b&gt;&lt;font style=&quot;font-size: 14px;&quot;&gt;简历维护&lt;/font&gt;&lt;/b&gt;" style="text;html=1;align=center;verticalAlign=middle;whiteSpace=wrap;rounded=0;" vertex="1" parent="hcoVns-1XVPWfOlpt7Nq-42">
          <mxGeometry x="130" y="28.888888888888886" width="60" height="28.888888888888886" as="geometry" />
        </mxCell>
        <mxCell id="hcoVns-1XVPWfOlpt7Nq-53" value="简历筛选[条件or标签]" style="ellipse;whiteSpace=wrap;html=1;" vertex="1" parent="hcoVns-1XVPWfOlpt7Nq-42">
          <mxGeometry x="95" y="70" width="130" height="48.15" as="geometry" />
        </mxCell>
        <mxCell id="hcoVns-1XVPWfOlpt7Nq-60" value="简历修改" style="ellipse;whiteSpace=wrap;html=1;" vertex="1" parent="hcoVns-1XVPWfOlpt7Nq-42">
          <mxGeometry x="100" y="130" width="130" height="48.15" as="geometry" />
        </mxCell>
        <mxCell id="hcoVns-1XVPWfOlpt7Nq-61" value="简历下载" style="ellipse;whiteSpace=wrap;html=1;" vertex="1" parent="hcoVns-1XVPWfOlpt7Nq-42">
          <mxGeometry x="100" y="190" width="130" height="48.15" as="geometry" />
        </mxCell>
        <mxCell id="hcoVns-1XVPWfOlpt7Nq-62" value="简历删除及清理" style="ellipse;whiteSpace=wrap;html=1;" vertex="1" parent="hcoVns-1XVPWfOlpt7Nq-42">
          <mxGeometry x="100" y="260" width="130" height="48.15" as="geometry" />
        </mxCell>
        <mxCell id="hcoVns-1XVPWfOlpt7Nq-63" value="简历收藏" style="ellipse;whiteSpace=wrap;html=1;" vertex="1" parent="hcoVns-1XVPWfOlpt7Nq-42">
          <mxGeometry x="100" y="320" width="130" height="48.15" as="geometry" />
        </mxCell>
        <mxCell id="hcoVns-1XVPWfOlpt7Nq-64" value="人才地图" style="ellipse;whiteSpace=wrap;html=1;" vertex="1" parent="hcoVns-1XVPWfOlpt7Nq-42">
          <mxGeometry x="100" y="392" width="130" height="48.15" as="geometry" />
        </mxCell>
        <mxCell id="hcoVns-1XVPWfOlpt7Nq-65" value="简历最新动态" style="ellipse;whiteSpace=wrap;html=1;" vertex="1" parent="hcoVns-1XVPWfOlpt7Nq-42">
          <mxGeometry x="100" y="458.1500000000001" width="130" height="48.15" as="geometry" />
        </mxCell>
        <mxCell id="hcoVns-1XVPWfOlpt7Nq-10" value="" style="group" vertex="1" connectable="0" parent="1">
          <mxGeometry x="260" y="120" width="320" height="520" as="geometry" />
        </mxCell>
        <mxCell id="hcoVns-1XVPWfOlpt7Nq-3" value="" style="rounded=0;whiteSpace=wrap;html=1;" vertex="1" parent="hcoVns-1XVPWfOlpt7Nq-10">
          <mxGeometry y="20" width="320" height="500" as="geometry" />
        </mxCell>
        <mxCell id="hcoVns-1XVPWfOlpt7Nq-9" value="&lt;b&gt;&lt;font style=&quot;font-size: 14px;&quot;&gt;岗位管理&lt;/font&gt;&lt;/b&gt;" style="text;html=1;align=center;verticalAlign=middle;whiteSpace=wrap;rounded=0;" vertex="1" parent="hcoVns-1XVPWfOlpt7Nq-10">
          <mxGeometry x="130" y="28.888888888888886" width="60" height="28.888888888888886" as="geometry" />
        </mxCell>
        <mxCell id="hcoVns-1XVPWfOlpt7Nq-32" style="edgeStyle=none;rounded=0;orthogonalLoop=1;jettySize=auto;html=1;exitX=1;exitY=0;exitDx=0;exitDy=0;entryX=0;entryY=1;entryDx=0;entryDy=0;dashed=1;" edge="1" parent="hcoVns-1XVPWfOlpt7Nq-10" source="hcoVns-1XVPWfOlpt7Nq-5" target="hcoVns-1XVPWfOlpt7Nq-21">
          <mxGeometry relative="1" as="geometry" />
        </mxCell>
        <mxCell id="hcoVns-1XVPWfOlpt7Nq-33" value="《include》" style="edgeLabel;html=1;align=center;verticalAlign=middle;resizable=0;points=[];" vertex="1" connectable="0" parent="hcoVns-1XVPWfOlpt7Nq-32">
          <mxGeometry x="-0.0267" y="-2" relative="1" as="geometry">
            <mxPoint as="offset" />
          </mxGeometry>
        </mxCell>
        <mxCell id="hcoVns-1XVPWfOlpt7Nq-5" value="岗位维护" style="ellipse;whiteSpace=wrap;html=1;" vertex="1" parent="hcoVns-1XVPWfOlpt7Nq-10">
          <mxGeometry x="80" y="115.55555555555554" width="100" height="48.148148148148145" as="geometry" />
        </mxCell>
        <mxCell id="hcoVns-1XVPWfOlpt7Nq-11" value="候选人更新" style="ellipse;whiteSpace=wrap;html=1;" vertex="1" parent="hcoVns-1XVPWfOlpt7Nq-10">
          <mxGeometry x="80" y="192.59259259259258" width="120" height="48.148148148148145" as="geometry" />
        </mxCell>
        <mxCell id="hcoVns-1XVPWfOlpt7Nq-12" value="候选人推荐" style="ellipse;whiteSpace=wrap;html=1;" vertex="1" parent="hcoVns-1XVPWfOlpt7Nq-10">
          <mxGeometry x="80" y="269.6296296296296" width="120" height="48.148148148148145" as="geometry" />
        </mxCell>
        <mxCell id="hcoVns-1XVPWfOlpt7Nq-30" style="edgeStyle=none;rounded=0;orthogonalLoop=1;jettySize=auto;html=1;exitX=0.5;exitY=0;exitDx=0;exitDy=0;dashed=1;" edge="1" parent="hcoVns-1XVPWfOlpt7Nq-10" source="hcoVns-1XVPWfOlpt7Nq-13" target="hcoVns-1XVPWfOlpt7Nq-22">
          <mxGeometry relative="1" as="geometry" />
        </mxCell>
        <mxCell id="hcoVns-1XVPWfOlpt7Nq-31" value="《extend》" style="edgeLabel;html=1;align=center;verticalAlign=middle;resizable=0;points=[];" vertex="1" connectable="0" parent="hcoVns-1XVPWfOlpt7Nq-30">
          <mxGeometry x="-0.0971" y="2" relative="1" as="geometry">
            <mxPoint as="offset" />
          </mxGeometry>
        </mxCell>
        <mxCell id="hcoVns-1XVPWfOlpt7Nq-13" value="岗位候选人查看" style="ellipse;whiteSpace=wrap;html=1;" vertex="1" parent="hcoVns-1XVPWfOlpt7Nq-10">
          <mxGeometry x="80" y="452.59259259259255" width="120" height="48.148148148148145" as="geometry" />
        </mxCell>
        <mxCell id="hcoVns-1XVPWfOlpt7Nq-21" value="岗位信息获取" style="ellipse;whiteSpace=wrap;html=1;" vertex="1" parent="hcoVns-1XVPWfOlpt7Nq-10">
          <mxGeometry x="200" y="57.77777777777777" width="100" height="48.148148148148145" as="geometry" />
        </mxCell>
        <mxCell id="hcoVns-1XVPWfOlpt7Nq-22" value="候选人对比" style="ellipse;whiteSpace=wrap;html=1;" vertex="1" parent="hcoVns-1XVPWfOlpt7Nq-10">
          <mxGeometry x="80" y="356.2962962962963" width="120" height="48.148148148148145" as="geometry" />
        </mxCell>
        <mxCell id="hcoVns-1XVPWfOlpt7Nq-35" style="edgeStyle=none;rounded=0;orthogonalLoop=1;jettySize=auto;html=1;exitX=0.5;exitY=0.5;exitDx=0;exitDy=0;exitPerimeter=0;entryX=0;entryY=0.5;entryDx=0;entryDy=0;" edge="1" parent="1" source="hcoVns-1XVPWfOlpt7Nq-1" target="hcoVns-1XVPWfOlpt7Nq-5">
          <mxGeometry relative="1" as="geometry" />
        </mxCell>
        <mxCell id="hcoVns-1XVPWfOlpt7Nq-36" style="edgeStyle=none;rounded=0;orthogonalLoop=1;jettySize=auto;html=1;exitX=0.5;exitY=0.5;exitDx=0;exitDy=0;exitPerimeter=0;entryX=0;entryY=0.5;entryDx=0;entryDy=0;" edge="1" parent="1" source="hcoVns-1XVPWfOlpt7Nq-1" target="hcoVns-1XVPWfOlpt7Nq-11">
          <mxGeometry relative="1" as="geometry" />
        </mxCell>
        <mxCell id="hcoVns-1XVPWfOlpt7Nq-37" style="edgeStyle=none;rounded=0;orthogonalLoop=1;jettySize=auto;html=1;exitX=0.5;exitY=0.5;exitDx=0;exitDy=0;exitPerimeter=0;entryX=0;entryY=0.5;entryDx=0;entryDy=0;" edge="1" parent="1" source="hcoVns-1XVPWfOlpt7Nq-1" target="hcoVns-1XVPWfOlpt7Nq-12">
          <mxGeometry relative="1" as="geometry" />
        </mxCell>
        <mxCell id="hcoVns-1XVPWfOlpt7Nq-38" style="edgeStyle=none;rounded=0;orthogonalLoop=1;jettySize=auto;html=1;exitX=0.5;exitY=0.5;exitDx=0;exitDy=0;exitPerimeter=0;entryX=0;entryY=0.5;entryDx=0;entryDy=0;" edge="1" parent="1" source="hcoVns-1XVPWfOlpt7Nq-1" target="hcoVns-1XVPWfOlpt7Nq-22">
          <mxGeometry relative="1" as="geometry" />
        </mxCell>
        <mxCell id="hcoVns-1XVPWfOlpt7Nq-1" value="HR" style="shape=umlActor;verticalLabelPosition=bottom;verticalAlign=top;html=1;outlineConnect=0;" vertex="1" parent="1">
          <mxGeometry x="120" y="330" width="30" height="60" as="geometry" />
        </mxCell>
        <mxCell id="hcoVns-1XVPWfOlpt7Nq-39" style="edgeStyle=none;rounded=0;orthogonalLoop=1;jettySize=auto;html=1;exitX=0.5;exitY=0.5;exitDx=0;exitDy=0;exitPerimeter=0;entryX=0.083;entryY=0.4;entryDx=0;entryDy=0;entryPerimeter=0;" edge="1" parent="1" source="hcoVns-1XVPWfOlpt7Nq-1" target="hcoVns-1XVPWfOlpt7Nq-13">
          <mxGeometry relative="1" as="geometry" />
        </mxCell>
        <mxCell id="hcoVns-1XVPWfOlpt7Nq-70" style="edgeStyle=none;rounded=0;orthogonalLoop=1;jettySize=auto;html=1;exitX=1;exitY=0.3333333333333333;exitDx=0;exitDy=0;exitPerimeter=0;entryX=0;entryY=0.5;entryDx=0;entryDy=0;" edge="1" parent="1" source="hcoVns-1XVPWfOlpt7Nq-41" target="hcoVns-1XVPWfOlpt7Nq-60">
          <mxGeometry relative="1" as="geometry" />
        </mxCell>
        <mxCell id="hcoVns-1XVPWfOlpt7Nq-71" style="edgeStyle=none;rounded=0;orthogonalLoop=1;jettySize=auto;html=1;exitX=1;exitY=0.3333333333333333;exitDx=0;exitDy=0;exitPerimeter=0;entryX=0;entryY=0.5;entryDx=0;entryDy=0;" edge="1" parent="1" source="hcoVns-1XVPWfOlpt7Nq-41" target="hcoVns-1XVPWfOlpt7Nq-61">
          <mxGeometry relative="1" as="geometry" />
        </mxCell>
        <mxCell id="hcoVns-1XVPWfOlpt7Nq-72" style="edgeStyle=none;rounded=0;orthogonalLoop=1;jettySize=auto;html=1;exitX=1;exitY=0.3333333333333333;exitDx=0;exitDy=0;exitPerimeter=0;entryX=0;entryY=0.5;entryDx=0;entryDy=0;" edge="1" parent="1" source="hcoVns-1XVPWfOlpt7Nq-41" target="hcoVns-1XVPWfOlpt7Nq-62">
          <mxGeometry relative="1" as="geometry" />
        </mxCell>
        <mxCell id="hcoVns-1XVPWfOlpt7Nq-73" style="edgeStyle=none;rounded=0;orthogonalLoop=1;jettySize=auto;html=1;exitX=1;exitY=0.3333333333333333;exitDx=0;exitDy=0;exitPerimeter=0;entryX=0;entryY=0.5;entryDx=0;entryDy=0;" edge="1" parent="1" source="hcoVns-1XVPWfOlpt7Nq-41" target="hcoVns-1XVPWfOlpt7Nq-63">
          <mxGeometry relative="1" as="geometry" />
        </mxCell>
        <mxCell id="hcoVns-1XVPWfOlpt7Nq-74" style="edgeStyle=none;rounded=0;orthogonalLoop=1;jettySize=auto;html=1;exitX=1;exitY=0.3333333333333333;exitDx=0;exitDy=0;exitPerimeter=0;entryX=0;entryY=0.5;entryDx=0;entryDy=0;" edge="1" parent="1" source="hcoVns-1XVPWfOlpt7Nq-41" target="hcoVns-1XVPWfOlpt7Nq-64">
          <mxGeometry relative="1" as="geometry" />
        </mxCell>
        <mxCell id="hcoVns-1XVPWfOlpt7Nq-75" style="edgeStyle=none;rounded=0;orthogonalLoop=1;jettySize=auto;html=1;exitX=1;exitY=0.3333333333333333;exitDx=0;exitDy=0;exitPerimeter=0;entryX=0;entryY=0.5;entryDx=0;entryDy=0;" edge="1" parent="1" source="hcoVns-1XVPWfOlpt7Nq-41" target="hcoVns-1XVPWfOlpt7Nq-65">
          <mxGeometry relative="1" as="geometry" />
        </mxCell>
        <mxCell id="hcoVns-1XVPWfOlpt7Nq-41" value="HR" style="shape=umlActor;verticalLabelPosition=bottom;verticalAlign=top;html=1;outlineConnect=0;" vertex="1" parent="1">
          <mxGeometry x="90" y="1030" width="30" height="60" as="geometry" />
        </mxCell>
        <mxCell id="hcoVns-1XVPWfOlpt7Nq-69" style="edgeStyle=none;rounded=0;orthogonalLoop=1;jettySize=auto;html=1;entryX=0;entryY=0.5;entryDx=0;entryDy=0;" edge="1" parent="1" source="hcoVns-1XVPWfOlpt7Nq-41" target="hcoVns-1XVPWfOlpt7Nq-53">
          <mxGeometry relative="1" as="geometry" />
        </mxCell>
      </root>
    </mxGraphModel>
  </diagram>
</mxfile>
